<svg width="181" height="127" viewBox="0 0 181 127" fill="none" xmlns="http://www.w3.org/2000/svg">
<path d="M87.8493 4.50509C89.9611 4.50509 91.7631 4.84297 93.2555 5.51874C94.7478 6.19451 95.9726 7.15185 96.9299 8.39075C97.9154 9.62966 98.6334 11.1501 99.084 12.9522C99.5345 14.7261 99.7597 16.7252 99.7597 18.9496C99.7597 21.1459 99.5063 23.1591 98.9995 24.9893C98.5208 26.7913 97.7606 28.34 96.7188 29.6352C95.7051 30.9304 94.4099 31.9441 92.8331 32.6761C91.2845 33.3801 89.4402 33.732 87.3003 33.732C85.1885 33.732 83.3724 33.4223 81.8519 32.8029C80.3596 32.1552 79.1207 31.2261 78.1352 30.0153C77.1778 28.7764 76.4739 27.2841 76.0234 25.5383C75.5729 23.7926 75.3476 21.7935 75.3476 19.5409C75.3476 17.3447 75.587 15.3314 76.0656 13.5012C76.5725 11.6429 77.3327 10.052 78.3463 8.72864C79.3882 7.3771 80.6975 6.3353 82.2742 5.60321C83.851 4.87113 85.7094 4.50509 87.8493 4.50509ZM87.258 8.39075C86.0191 8.39075 84.9914 8.67232 84.1748 9.23546C83.3583 9.77045 82.6966 10.5166 82.1898 11.4739C81.6829 12.4313 81.3169 13.5576 81.0916 14.8528C80.8945 16.148 80.796 17.5558 80.796 19.0763C80.796 20.5123 80.8945 21.8779 81.0916 23.1732C81.2887 24.4684 81.6407 25.6087 82.1475 26.5942C82.6825 27.5797 83.4005 28.3681 84.3015 28.9594C85.2307 29.5507 86.4274 29.8464 87.8916 29.8464C89.1023 29.8464 90.116 29.5789 90.9325 29.0439C91.7772 28.5089 92.453 27.7768 92.9598 26.8476C93.4666 25.9185 93.8186 24.8203 94.0157 23.5533C94.241 22.2581 94.3536 20.8643 94.3536 19.372C94.3536 17.936 94.255 16.5563 94.0579 15.2329C93.8608 13.9095 93.4948 12.741 92.9598 11.7274C92.453 10.7137 91.735 9.91123 90.8058 9.31993C89.9048 8.70048 88.7222 8.39075 87.258 8.39075Z" fill="#F5B31C"/>
<path d="M108.881 33.6476C107.276 33.6476 106.094 33.2111 105.333 32.3383C104.573 31.4372 104.193 30.2969 104.193 28.9172V3.70262L109.008 2.81567V28.4526C109.008 29.1002 109.135 29.5507 109.388 29.8041C109.641 30.0575 110.008 30.1843 110.486 30.1843C110.768 30.1843 111.035 30.1702 111.289 30.142C111.57 30.1139 111.824 30.0716 112.049 30.0153C112.302 29.959 112.528 29.9027 112.725 29.8464L113.316 32.8873C112.95 33.0281 112.542 33.1548 112.091 33.2674C111.697 33.3801 111.232 33.4645 110.697 33.5209C110.162 33.6053 109.557 33.6476 108.881 33.6476Z" fill="#F5B31C"/>
<path d="M131.324 33.8165C131.267 33.7883 131.141 33.6616 130.944 33.4364C130.747 33.183 130.521 32.8451 130.268 32.4227C130.043 32.0004 129.817 31.4795 129.592 30.86C129.367 30.2124 129.226 29.4662 129.17 28.6215C128.691 30.311 127.917 31.5921 126.847 32.465C125.805 33.3097 124.383 33.732 122.581 33.732C121.258 33.732 120.103 33.4927 119.118 33.014C118.16 32.5072 117.358 31.8033 116.71 30.9023C116.063 29.9731 115.584 28.8609 115.274 27.5657C114.965 26.2704 114.81 24.8344 114.81 23.2576C114.81 21.6527 115.049 20.1744 115.528 18.8229C116.035 17.4432 116.724 16.2606 117.597 15.2751C118.498 14.2896 119.568 13.5153 120.807 12.9522C122.046 12.389 123.412 12.1075 124.904 12.1075C125.411 12.1075 125.946 12.1356 126.509 12.1919C127.1 12.2483 127.677 12.3187 128.241 12.4031V2.85791L133.055 3.70262V23.2999C133.055 24.9893 133.154 26.3971 133.351 27.5234C133.548 28.6215 133.773 29.5226 134.027 30.2265C134.28 30.9023 134.506 31.395 134.703 31.7047C134.928 32.0145 135.055 32.2116 135.083 32.296L131.324 33.8165ZM123.384 30.311C124.087 30.311 124.735 30.0716 125.326 29.593C125.918 29.1143 126.424 28.4948 126.847 27.7346C127.297 26.9462 127.635 26.0593 127.86 25.0738C128.114 24.0883 128.241 23.0746 128.241 22.0328V15.9509C127.959 15.8664 127.537 15.7679 126.974 15.6553C126.41 15.5426 125.904 15.4863 125.453 15.4863C124.383 15.4863 123.496 15.6693 122.792 16.0354C122.116 16.4014 121.567 16.9082 121.145 17.5558C120.723 18.2035 120.427 18.9778 120.258 19.8788C120.089 20.7798 120.005 21.7653 120.005 22.8353C120.005 23.8208 120.033 24.764 120.089 25.6651C120.145 26.5661 120.286 27.3686 120.512 28.0725C120.765 28.7482 121.117 29.2973 121.567 29.7197C122.018 30.1139 122.623 30.311 123.384 30.311Z" fill="#F5B31C"/>
<path d="M92.1151 55.6804C91.4393 54.9484 90.7213 54.3993 89.9611 54.0333C89.229 53.6391 88.3702 53.442 87.3847 53.442C86.174 53.442 85.1463 53.7235 84.3015 54.2867C83.485 54.8217 82.8233 55.5819 82.3165 56.5674C81.8097 57.5247 81.4436 58.651 81.2184 59.9462C80.9931 61.2414 80.8805 62.6352 80.8805 64.1275C80.8805 65.6199 80.979 67.0136 81.1761 68.3088C81.4014 69.6041 81.7674 70.7444 82.2742 71.7299C82.8092 72.7154 83.5132 73.4897 84.386 74.0529C85.287 74.616 86.4133 74.8976 87.7649 74.8976C88.4125 74.8976 89.0319 74.8413 89.6232 74.7286C90.2145 74.616 90.7495 74.5034 91.2282 74.3908C91.735 74.25 92.1433 74.1233 92.453 74.0106C92.7909 73.898 93.0021 73.8276 93.0865 73.7995L94.2691 77.3472L93.7201 77.5584C93.354 77.6992 92.8331 77.8681 92.1573 78.0652C91.5097 78.2342 90.7213 78.389 89.7922 78.5298C88.8911 78.6988 87.8916 78.7832 86.7934 78.7832C83.0204 78.7832 80.1765 77.5866 78.2619 75.1932C76.3754 72.7717 75.4321 69.238 75.4321 64.5921C75.4321 62.3677 75.6855 60.3404 76.1923 58.5102C76.6992 56.6519 77.4594 55.061 78.4731 53.7376C79.5149 52.4142 80.8101 51.3865 82.3587 50.6544C83.9355 49.9223 85.7798 49.5563 87.8916 49.5563C89.581 49.5563 90.9607 49.866 92.0306 50.4855C93.1288 51.1049 94.0157 51.8089 94.6915 52.5973L92.1151 55.6804Z" fill="#F5B31C"/>
<path d="M102.735 78.6988C101.242 78.6988 100.102 78.2623 99.3136 77.3895C98.5252 76.4884 98.131 75.334 98.131 73.9262V57.4966H102.946V73.5038C102.946 74.1514 103.044 74.5879 103.242 74.8131C103.439 75.0384 103.734 75.151 104.128 75.151C104.241 75.151 104.354 75.151 104.466 75.151C104.607 75.151 104.734 75.1369 104.846 75.1088C104.959 75.1088 105.086 75.0947 105.227 75.0665L105.733 78.1075C105.536 78.2201 105.283 78.3187 104.973 78.4031C104.72 78.4876 104.396 78.558 104.002 78.6143C103.636 78.6706 103.213 78.6988 102.735 78.6988ZM100.623 48.1203C101.524 48.1203 102.214 48.3878 102.692 48.9228C103.171 49.4578 103.41 50.1476 103.41 50.9923C103.41 51.837 103.157 52.5409 102.65 53.1041C102.172 53.6672 101.454 53.9488 100.496 53.9488C99.5952 53.9488 98.8913 53.6813 98.3844 53.1463C97.9058 52.5832 97.6664 51.9074 97.6664 51.119C97.6664 50.2462 97.9058 49.5281 98.3844 48.965C98.8913 48.4019 99.6374 48.1203 100.623 48.1203Z" fill="#F5B31C"/>
<path d="M106.618 57.4966H110.42L111.264 52.555L115.234 51.6681V57.4966H120.429L119.838 60.9176H115.234V73.4193C115.234 74.1514 115.431 74.6301 115.826 74.8553C116.22 75.0524 116.656 75.151 117.135 75.151C117.529 75.151 117.923 75.1228 118.318 75.0665C118.712 75.0102 119.064 74.9398 119.373 74.8553C119.74 74.7709 120.091 74.6723 120.429 74.5597L121.232 77.7274L120.852 77.8541C120.598 77.9667 120.218 78.0934 119.711 78.2342C119.233 78.3468 118.655 78.4454 117.98 78.5298C117.332 78.6425 116.614 78.6988 115.826 78.6988C115.037 78.6988 114.305 78.6143 113.629 78.4454C112.982 78.2764 112.419 78.0089 111.94 77.6429C111.461 77.2487 111.081 76.7559 110.8 76.1646C110.546 75.5733 110.42 74.8413 110.42 73.9684V60.9176H106.618V57.4966Z" fill="#F5B31C"/>
<path d="M141.392 69.9983C141.392 70.843 141.448 71.6173 141.561 72.3212C141.702 73.0251 141.843 73.7291 141.983 74.433C142.152 75.1088 142.307 75.7986 142.448 76.5025C142.589 77.2065 142.659 77.9808 142.659 78.8255C142.659 81.8101 141.899 84.0345 140.378 85.4987C138.858 86.9628 136.802 87.6949 134.212 87.6949C133.367 87.6949 132.523 87.6105 131.678 87.4415C130.833 87.3007 130.045 87.1318 129.313 86.9347C128.609 86.7376 128.003 86.5405 127.497 86.3434C126.99 86.1463 126.652 86.0055 126.483 85.921L127.665 82.2466C128.06 82.4155 128.496 82.5844 128.975 82.7534C129.482 82.9505 129.988 83.1335 130.495 83.3024C131.03 83.4714 131.579 83.6122 132.142 83.7248C132.706 83.8374 133.255 83.8937 133.79 83.8937C135.366 83.8937 136.507 83.4151 137.211 82.4577C137.915 81.5285 138.267 80.3178 138.267 78.8255C138.267 77.4739 137.985 76.0802 137.422 74.6442C136.633 76.1365 135.578 77.2065 134.254 77.8541C132.959 78.4735 131.593 78.7832 130.157 78.7832C127.933 78.7832 126.342 78.1356 125.385 76.8404C124.456 75.5452 123.991 73.7713 123.991 71.5187V57.4966H128.806V71.392C128.806 72.5746 129.017 73.5038 129.439 74.1796C129.862 74.8553 130.58 75.1932 131.593 75.1932C132.128 75.1932 132.692 75.0384 133.283 74.7286C133.902 74.4189 134.451 73.9966 134.93 73.4616C135.437 72.8984 135.845 72.2367 136.155 71.4765C136.493 70.6881 136.662 69.8434 136.662 68.9424V57.4966H141.603L141.392 69.9983Z" fill="#F5B31C"/>
<path d="M93.8046 94.9875L93.171 98.7887H86.0755V123.581H81.0917V98.7887H73.8694V94.9875H93.8046Z" fill="#F5B31C"/>
<path d="M102.439 106.94C101.932 106.94 101.425 107.067 100.919 107.32C100.412 107.574 99.9613 107.926 99.5671 108.376C99.1729 108.799 98.8491 109.319 98.5956 109.939C98.3422 110.558 98.2155 111.248 98.2155 112.008V123.581H93.4007V112.938C93.4007 111.248 93.288 109.84 93.0628 108.714C92.8375 107.56 92.5982 106.63 92.3448 105.926C92.0351 105.11 91.6972 104.448 91.3311 103.941L95.1323 102.421C95.3857 102.731 95.6532 103.111 95.9348 103.561C96.1601 103.956 96.3853 104.42 96.6106 104.955C96.8358 105.49 97.0188 106.124 97.1596 106.856C97.7228 105.223 98.5393 104.054 99.6093 103.35C100.679 102.618 101.89 102.252 103.242 102.252C103.889 102.252 104.495 102.336 105.058 102.505C105.621 102.646 105.888 102.717 105.86 102.717L104.509 107.405C104.537 107.405 104.368 107.334 104.002 107.194C103.664 107.025 103.143 106.94 102.439 106.94Z" fill="#F5B31C"/>
<path d="M124.311 113.402C124.311 115.092 124.41 116.514 124.607 117.668C124.832 118.794 125.072 119.709 125.325 120.413C125.635 121.258 125.973 121.92 126.339 122.398L122.58 123.919C122.214 123.553 121.876 123.116 121.566 122.609C121.313 122.159 121.073 121.624 120.848 121.005C120.623 120.357 120.482 119.597 120.426 118.724C119.947 120.413 119.173 121.694 118.103 122.567C117.061 123.412 115.639 123.834 113.837 123.834C112.514 123.834 111.359 123.595 110.374 123.116C109.416 122.609 108.614 121.906 107.966 121.005C107.319 120.075 106.84 118.963 106.53 117.668C106.221 116.373 106.066 114.937 106.066 113.36C106.066 111.755 106.305 110.277 106.784 108.925C107.291 107.546 107.98 106.363 108.853 105.377C109.754 104.392 110.824 103.618 112.063 103.054C113.302 102.491 114.668 102.21 116.16 102.21C117.005 102.21 117.878 102.28 118.779 102.421C119.708 102.534 120.567 102.66 121.355 102.801C122.143 102.942 122.805 103.083 123.34 103.223C123.903 103.336 124.227 103.406 124.311 103.435V113.402ZM114.639 120.455C115.343 120.455 115.991 120.216 116.582 119.737C117.174 119.259 117.68 118.639 118.103 117.879C118.553 117.091 118.891 116.204 119.116 115.218C119.37 114.205 119.497 113.177 119.497 112.135V106.053C119.215 105.969 118.793 105.87 118.23 105.758C117.666 105.645 117.16 105.589 116.709 105.589C115.639 105.589 114.752 105.772 114.048 106.138C113.372 106.504 112.823 107.011 112.401 107.658C111.979 108.306 111.683 109.08 111.514 109.981C111.345 110.882 111.261 111.868 111.261 112.938C111.261 113.923 111.289 114.866 111.345 115.767C111.401 116.668 111.542 117.471 111.767 118.175C112.021 118.879 112.373 119.442 112.823 119.864C113.274 120.258 113.879 120.455 114.639 120.455Z" fill="#F5B31C"/>
<path d="M147.04 102.548L147.124 102.886C147.152 103.139 147.195 103.477 147.251 103.899C147.307 104.293 147.349 104.758 147.378 105.293C147.434 105.8 147.462 106.321 147.462 106.856C147.462 109.981 147.223 112.628 146.744 114.796C146.294 116.936 145.59 118.682 144.632 120.033C143.703 121.357 142.506 122.314 141.042 122.905C139.606 123.496 137.903 123.792 135.932 123.792C133.707 123.792 132.117 123.159 131.159 121.891C130.23 120.596 129.765 118.822 129.765 116.57V102.548H134.58V116.443C134.58 117.626 134.791 118.583 135.214 119.315C135.636 120.047 136.354 120.413 137.368 120.413C138.381 120.413 139.226 120.033 139.902 119.273C140.578 118.513 141.113 117.527 141.507 116.316C141.901 115.078 142.183 113.684 142.352 112.135C142.521 110.558 142.605 108.967 142.605 107.362C142.605 106.771 142.577 106.194 142.521 105.631C142.492 105.04 142.436 104.519 142.352 104.068C142.295 103.618 142.253 103.252 142.225 102.97L142.14 102.548H147.04Z" fill="#F5B31C"/>
<path d="M150.858 113.571C150.858 111.685 151.112 110.023 151.619 108.587C152.154 107.151 152.872 105.955 153.773 104.997C154.702 104.012 155.786 103.28 157.025 102.801C158.264 102.294 159.601 102.041 161.037 102.041C162.304 102.041 163.374 102.196 164.247 102.505C165.148 102.815 165.88 103.237 166.443 103.772C167.006 104.307 167.415 104.941 167.668 105.673C167.95 106.405 168.09 107.194 168.09 108.038C168.09 109.052 167.809 110.023 167.246 110.953C166.683 111.854 165.866 112.656 164.796 113.36C163.754 114.036 162.487 114.585 160.995 115.007C159.503 115.401 157.827 115.612 155.969 115.641C156.053 116.288 156.18 116.908 156.349 117.499C156.546 118.062 156.814 118.569 157.151 119.019C157.518 119.442 157.982 119.78 158.545 120.033C159.108 120.287 159.812 120.413 160.657 120.413C161.276 120.413 161.938 120.343 162.642 120.202C163.346 120.061 163.994 119.892 164.585 119.695C165.289 119.47 165.979 119.217 166.654 118.935L167.922 121.934C167.189 122.3 166.401 122.624 165.556 122.905C164.824 123.159 163.98 123.384 163.022 123.581C162.065 123.778 161.051 123.877 159.981 123.877C158.348 123.877 156.954 123.637 155.8 123.159C154.646 122.652 153.702 121.948 152.97 121.047C152.238 120.146 151.703 119.062 151.365 117.795C151.027 116.528 150.858 115.12 150.858 113.571ZM160.657 105.335C159.728 105.335 158.954 105.56 158.334 106.011C157.743 106.433 157.264 106.996 156.898 107.7C156.532 108.376 156.265 109.15 156.096 110.023C155.955 110.868 155.87 111.727 155.842 112.6C157.194 112.543 158.334 112.374 159.263 112.093C160.221 111.783 160.995 111.417 161.586 110.995C162.177 110.544 162.6 110.066 162.853 109.559C163.135 109.052 163.276 108.545 163.276 108.038C163.276 107.222 163.036 106.574 162.558 106.095C162.079 105.589 161.445 105.335 160.657 105.335Z" fill="#F5B31C"/>
<path d="M176.565 123.75C174.96 123.75 173.778 123.313 173.017 122.441C172.257 121.54 171.877 120.399 171.877 119.019V93.8049L176.692 92.918V118.555C176.692 119.203 176.819 119.653 177.072 119.906C177.326 120.16 177.692 120.287 178.17 120.287C178.452 120.287 178.719 120.272 178.973 120.244C179.254 120.216 179.508 120.174 179.733 120.118C179.986 120.061 180.212 120.005 180.409 119.949L181 122.99C180.634 123.13 180.226 123.257 179.775 123.37C179.381 123.482 178.916 123.567 178.381 123.623C177.846 123.708 177.241 123.75 176.565 123.75Z" fill="#F5B31C"/>
<rect x="64" width="5" height="127" fill="#6E8F0B"/>
<path d="M63 28.7397C62.9949 28.7397 62.9898 28.7397 62.9847 28.7397C62.1001 28.7397 61.4077 29.0504 60.7538 29.7495C60.1383 30.4097 59.8306 31.1864 59.8306 32.0797C59.8306 32.8953 60.1383 33.672 60.7153 34.2546C61.3051 34.8501 62.0488 35.1479 62.9463 35.1479C62.9643 35.1479 62.9822 35.1478 63 35.1476V28.7397Z" fill="#F5B31C"/>
<path d="M63 55.2593L62.8309 55.1491L61.5231 56.0424C60.7922 56.5473 59.8306 57.091 59.3306 57.2464C58.869 57.4017 58.0228 58.0231 57.5227 58.6833C56.9842 59.3047 56.5611 59.965 56.5611 60.198C56.5611 60.431 56.138 61.2466 55.5995 62.0622C54.6763 63.4603 54.6379 63.538 55.2918 64.4701C55.638 65.0138 56.1765 65.9459 56.4842 66.6062C56.7919 67.2664 57.3304 68.082 57.6766 68.5092C58.0228 68.8976 58.9075 69.519 59.6383 69.8685C60.3691 70.218 61.4077 70.8394 61.9462 71.189C62.4249 71.5313 62.676 71.6857 63 71.6251V55.2593Z" fill="#F5B31C"/>
<path d="M63 91.6629C62.9554 91.6585 62.9118 91.6563 62.8693 91.6563C62.2924 91.6563 61.4461 92.1224 60.7538 92.8214C59.8691 93.7535 59.6768 94.2196 59.8306 95.2293C59.946 95.9284 60.4461 96.8994 60.9846 97.3654C61.5231 97.8703 62.4078 98.2587 62.9463 98.2587C62.9639 98.2587 62.9818 98.2582 63 98.2574V91.6629Z" fill="#F5B31C"/>
<path d="M45.3294 47.3428C45.2909 46.5661 45.4063 45.8282 45.5986 45.7116C45.791 45.5563 46.5218 45.5563 47.2911 45.6728C48.0604 45.8282 49.522 46.333 50.5991 46.7991C51.6376 47.2651 52.907 48.1584 53.407 48.7798C53.907 49.4012 54.5609 50.7993 54.8687 51.848C55.1764 52.9354 55.4072 54.2559 55.4072 54.8773C55.4072 55.6929 55.2148 55.9259 54.5225 55.9259C54.0609 55.9259 52.7146 55.654 51.5607 55.3045C50.4067 54.9549 49.022 54.3724 48.522 54.0228C47.9834 53.6733 47.0988 52.3528 46.4833 51.0712C45.9063 49.7896 45.3678 48.1196 45.3294 47.3428Z" fill="#F5B31C"/>
<path d="M29.6357 61.2078C28.751 61.9457 28.4433 62.5282 28.4433 63.4215C28.4433 64.2371 28.7895 64.975 29.4818 65.6352C30.1357 66.2955 30.8666 66.5673 31.7897 66.5673C32.559 66.5673 33.4053 66.2566 33.8668 65.7906C34.29 65.3634 34.7131 64.4701 34.8285 63.771C34.9823 62.7224 34.8285 62.2952 33.8668 61.3631C33.2129 60.7029 32.2898 60.198 31.7897 60.198C31.2897 60.198 30.3281 60.6252 29.6357 61.2078Z" fill="#F5B31C"/>
<path d="M50.5991 71.8492C49.5605 72.2376 48.2912 72.9755 47.8296 73.4804C47.368 73.9464 46.6372 75.2669 46.2141 76.3932C45.7525 77.5195 45.4063 79.0341 45.4063 79.8109C45.4063 81.0925 45.4448 81.1702 46.868 81.1702C47.7142 81.1702 49.2528 80.6653 50.7914 79.8886C52.83 78.84 53.4455 78.3351 54.1378 76.8981C54.6379 75.9272 55.1764 74.2183 55.3302 73.092L55.5995 71.0336C53.2147 71.0725 51.6761 71.422 50.5991 71.8492Z" fill="#F5B31C"/>
<path fill-rule="evenodd" clip-rule="evenodd" d="M63 0.388376C58.8222 0.388949 56.5596 0.544369 55.7149 0.893261C55.0225 1.20396 53.984 1.98071 53.407 2.64094C52.4838 3.68956 52.33 4.23328 52.33 6.13631C52.33 7.68981 52.6377 8.97145 53.2916 10.4084C53.8301 11.4959 54.9456 13.2047 55.7918 14.1757C57.215 15.8068 57.3304 16.0399 57.0612 17.5934C56.9458 18.4866 56.1765 20.545 55.3687 22.1373C54.4455 24.0015 52.907 26.2153 51.0222 28.2736C48.8681 30.6427 47.8681 31.4583 47.1372 31.4583C46.5987 31.4583 45.7525 31.2253 45.214 30.9923C44.6755 30.7204 44.06 30.0602 43.8677 29.5164C43.56 28.8174 43.6369 27.7688 44.06 25.7492C44.4062 23.9627 44.637 20.8557 44.637 17.4768C44.637 12.8163 44.5216 11.8066 43.8677 10.4861C43.4446 9.63168 42.6753 7.5733 42.1368 5.94213C41.6367 4.27212 40.7521 2.25257 40.2135 1.47582C39.675 0.660236 39.0981 0 38.8673 0C38.6749 0 38.4057 0.582561 38.3288 1.28163C38.2134 1.94187 37.9441 3.92258 37.7133 5.63143C37.4441 7.84516 36.9825 9.43749 36.0593 11.2629C35.3285 12.661 34.6361 14.4864 34.4823 15.3408C34.29 16.3506 34.4053 17.7875 34.79 19.4187C35.1362 20.8169 36.0209 23.1859 36.7517 24.6618C37.4441 26.1376 38.4057 27.9629 38.8288 28.662L39.6366 29.9048C36.5209 29.9048 35.2131 29.5164 33.2899 28.5843C31.8282 27.8464 29.9819 26.7978 29.2511 26.2541L27.9048 25.2055C27.9048 17.0885 27.8279 16.5836 27.1355 16.0787C26.7124 15.768 26.02 15.535 25.5969 15.535C25.1738 15.535 24.1352 16.234 23.289 17.0885C22.4428 17.9817 21.1734 18.8362 20.5195 19.0303C19.5579 19.341 19.1733 19.7294 18.8655 20.6615C18.6732 21.3606 17.7885 22.6422 16.9423 23.4966C16.0191 24.3899 15.4037 25.3997 15.4037 25.9046C15.4037 26.4094 15.673 27.0697 15.9807 27.3804C16.2884 27.6911 17.4808 28.0795 18.5963 28.196C19.6733 28.3125 21.5965 28.3513 22.8659 28.2736L25.1353 28.1571C27.4047 31.4583 28.4433 33.3613 28.8664 34.4876C29.2895 35.5751 29.6357 37.2839 29.6357 38.2549V40.0025C27.4047 38.5656 25.6738 37.6335 24.366 36.9344C23.0197 36.2742 20.7888 35.4586 19.3656 35.109C17.9039 34.7595 16.0961 34.6041 15.3268 34.7207C14.519 34.8372 12.7112 35.5751 11.288 36.313C9.21086 37.3616 7.78766 37.7888 4.44122 38.2549C2.13333 38.5656 0.133152 38.9151 0.0177574 39.0316C-0.0976372 39.1481 0.363941 39.6918 0.979379 40.1967C1.63328 40.7016 3.71038 41.6726 5.59516 42.3328C7.51841 42.9542 9.74937 43.8475 10.5956 44.2747C11.9034 44.9349 12.865 45.0514 17.1346 45.0514C20.2118 45.0514 23.3275 44.8184 25.2122 44.43C27.8663 43.8863 28.4433 43.8475 29.4434 44.3135C30.2511 44.7019 30.7512 45.3233 31.0974 46.4107L31.5974 47.9642C26.9432 52.4694 24.4429 54.4501 23.0967 55.2268C21.7119 56.0424 19.5194 57.0133 18.2116 57.3629L15.8653 58.0619C13.5574 55.7705 11.8649 54.6054 10.5956 53.9452C8.90314 53.1296 7.7492 52.8189 6.28753 52.8189C5.17205 52.8189 3.78731 53.0519 3.24881 53.2849C2.7103 53.5568 1.86407 54.4112 1.44096 55.1491C0.67166 56.3531 0.59473 57.1687 0.479336 62.5283C0.402406 65.9848 0.517801 69.2083 0.74859 70.1015C0.940914 70.956 1.67175 72.1599 2.32565 72.8202C3.40267 73.8688 3.74885 73.9853 6.09521 73.9853C7.97999 73.9853 9.13393 73.7523 10.4033 73.1309C11.3649 72.6648 13.0189 71.5385 14.0574 70.6453C15.7499 69.1694 16.1345 69.0141 17.3269 69.2471C18.0578 69.4025 20.1349 70.2181 21.9427 71.1502C24.366 72.3541 26.02 73.5581 28.2894 75.7718C30.8666 78.2962 31.3666 78.9565 31.2512 79.8886C31.2128 80.4711 30.7512 81.3644 30.2896 81.8693C29.5203 82.646 29.1741 82.7237 27.1355 82.5295C25.8661 82.413 21.9812 82.2188 18.4809 82.1023C12.865 81.8693 11.9803 81.947 10.7879 82.5295C10.0571 82.9179 7.97999 83.7335 6.17214 84.3549C4.36429 84.9763 2.24872 85.9084 1.47942 86.4133C0.67166 86.957 0.0177574 87.5396 0.0177574 87.7726C0.0177574 88.0056 0.0946872 88.1609 0.210082 88.1609C0.325476 88.1609 2.36411 88.4328 4.74894 88.7823C8.17231 89.2872 9.55704 89.6756 11.5572 90.7242C13.4805 91.7728 14.5575 92.0835 16.173 92.0835C17.3269 92.1224 19.3271 91.8117 20.5965 91.4621C21.8658 91.1126 23.866 90.297 25.0199 89.6756C26.1739 89.093 27.7125 88.2386 28.4048 87.7726L29.6357 86.9958C29.6357 90.1417 29.2511 91.4621 28.3279 93.404C27.5971 94.9187 26.5585 96.744 26.02 97.4819L24.9815 98.8412C19.7887 98.6859 17.7885 98.7636 17.1346 98.9577C16.4423 99.1519 15.8268 99.6568 15.596 100.278C15.2498 101.171 15.4037 101.521 17.0577 103.346C18.0578 104.511 18.9809 105.871 19.0579 106.415C19.2117 107.075 19.5964 107.463 20.2887 107.657C20.9042 107.774 22.1735 108.628 23.2121 109.483C24.2122 110.376 25.4046 111.075 25.9046 111.075C26.3662 111.114 27.0201 110.803 27.3278 110.454C27.7509 109.949 27.9048 108.706 27.9817 105.677L28.0202 101.56C30.3281 99.851 31.7897 98.9189 32.8283 98.414C33.8284 97.9091 35.4439 97.2878 36.4825 97.0936C37.4825 96.8605 38.598 96.7829 38.9827 96.8994C39.5596 97.0547 39.5212 97.2877 38.5211 98.9577C37.8672 99.9675 36.8671 101.909 36.2517 103.308C35.6362 104.706 34.9054 106.881 34.6361 108.162C34.4054 109.444 34.3284 111.036 34.4438 111.658C34.5977 112.279 35.29 114.027 36.0209 115.541C36.9056 117.406 37.4441 119.231 37.7133 121.367C37.8111 122.091 37.9089 122.864 37.9979 123.567C38.1189 124.524 38.2238 125.353 38.2903 125.756C38.4057 126.416 38.598 126.998 38.7903 126.998C38.9442 127.037 39.5212 126.377 40.0981 125.561C40.6751 124.746 41.5983 122.687 42.1368 120.979C42.6753 119.27 43.4446 117.173 43.8677 116.318C44.5216 114.998 44.637 113.91 44.637 109.522C44.637 106.376 44.4062 103.075 44.06 101.249C43.56 98.6082 43.56 98.1422 44.06 97.0936C44.4447 96.278 45.0601 95.8119 46.0987 95.5401L47.5219 95.1517C52.5608 100.395 54.2148 102.531 55.0995 104.278C55.8687 105.793 56.6765 107.813 56.9073 108.861C57.0824 109.617 57.185 110.059 57.1253 110.479C57.0406 111.072 56.63 111.619 55.638 112.939C54.6763 114.143 53.5609 115.93 53.1377 116.901C52.6762 117.949 52.33 119.503 52.33 120.784C52.2915 122.454 52.4838 123.192 53.1762 124.047C53.6763 124.668 54.7533 125.523 55.5995 125.911C56.8688 126.455 58.1766 126.61 62.9078 126.61C62.9387 126.61 62.9694 126.61 63 126.61V119.611C62.9271 119.616 62.8576 119.619 62.7924 119.619C62.2155 119.619 61.3308 119.347 60.8692 119.037C60.4076 118.726 59.9845 118.221 59.9845 117.949C59.9845 117.716 60.4461 117.056 60.9846 116.512C61.9847 115.58 62.0231 115.425 61.8308 112.046C61.7154 109.522 61.2923 107.541 60.4076 104.861C59.7537 102.841 58.5998 100.123 57.9074 98.8412C57.215 97.5596 55.9072 95.5789 55.061 94.4526C54.1763 93.3652 53.6763 92.4331 53.9455 92.4331C54.2148 92.4331 55.5226 91.734 56.8304 90.8796C58.4459 89.831 59.8306 88.4716 61.0615 86.8016C61.8956 85.589 62.7007 84.6977 63 84.5839V73.6289C62.4297 73.6035 61.8791 73.7185 60.9846 73.9853C59.946 74.296 58.7921 74.8009 58.4844 75.1892C58.0612 75.6553 57.9843 76.2379 58.1766 77.4418C58.3305 78.2962 58.7921 79.4614 59.2152 80.0051C59.9076 80.976 59.9076 81.0149 59.1383 82.5295C58.7151 83.3839 57.4073 85.054 56.2149 86.2191C55.0225 87.3842 53.3301 88.7047 50.8299 89.9086L47.9835 86.8016C46.4064 85.0928 43.6754 82.2577 41.906 80.51C40.1366 78.7623 38.2903 77.0534 37.8287 76.7039C37.3287 76.3932 36.944 75.8107 36.944 75.4223C36.944 75.0727 37.3671 74.063 37.9441 73.2085C38.4826 72.3541 39.4827 71.0725 40.1751 70.3346C40.829 69.6355 42.2907 68.4315 45.4063 66.412L46.4833 67.1887C47.0603 67.616 48.2912 68.082 49.2528 68.1985C50.7914 68.4315 51.0606 68.3539 51.5992 67.5383C51.9453 67.0334 52.4069 65.8294 52.5992 64.8585C52.9454 63.4992 52.907 62.7224 52.4838 61.3631C52.1761 60.3922 51.6376 59.3047 51.253 58.9552C50.7145 58.4503 50.3298 58.3726 49.0605 58.6833C48.2142 58.8775 47.0603 59.4213 45.4063 60.5864L43.0984 59.0329C41.8291 58.1785 40.0212 56.4696 39.0596 55.2268C38.098 54.0229 37.2133 52.6635 37.0979 52.2363C36.944 51.6149 38.3672 49.9449 43.9062 44.2358L50.9452 37.0509L52.5223 37.8277C53.3685 38.216 54.9071 39.3811 55.9072 40.3521C56.9458 41.323 58.292 42.9542 60.023 45.8282L59.2537 46.8768C58.7921 47.4982 58.369 48.7798 58.292 49.7896C58.0997 51.5761 58.1766 51.6926 59.3691 52.314C60.1384 52.7412 61.4846 52.9742 62.9078 52.9742C62.9386 52.9742 62.9693 52.9741 63 52.9739V42.5412C62.9694 42.5879 62.9387 42.6349 62.9078 42.6823L61.3308 40.4686C60.4845 39.2646 59.1767 37.75 58.4459 37.1286C57.7151 36.5072 56.3303 35.6139 53.4839 34.1769L55.061 32.3516C55.9072 31.303 57.3689 29.0116 58.292 27.1862C59.1767 25.3608 60.3307 22.6422 60.7923 21.1664C61.2538 19.6906 61.7154 16.9331 61.8693 15.0689C62.1385 11.7289 62.1385 11.6901 61.0615 10.6026C60.4076 9.98122 60.023 9.20447 60.0999 8.73842C60.1768 8.27237 60.7153 7.80632 61.5616 7.49562C62.2432 7.24206 62.8579 7.05607 63 7.03218V0.388376ZM33.2899 34.5265C33.5591 35.3032 34.0592 38.0218 34.4054 40.5851C34.7131 43.1484 35.0977 45.3233 35.1746 45.4398C35.29 45.5563 35.9824 45.1291 36.7517 44.4688C37.4825 43.8475 39.0981 42.3328 40.3289 41.1677C41.5214 40.0025 43.06 38.2937 43.7523 37.4004C44.4447 36.4683 44.9832 35.6528 44.9063 35.5362C44.8678 35.4197 42.9446 35.0702 40.5982 34.7595C38.2903 34.4488 35.5593 33.9439 34.5592 33.672L32.7514 33.1283L33.2899 34.5265ZM26.3662 59.0329C28.4818 57.9843 30.982 56.4308 31.9436 55.5764C32.9052 54.6831 33.8284 53.984 33.9822 53.984C34.1361 53.984 34.2515 54.1782 34.2515 54.4501C34.2515 54.7219 34.9439 56.0036 35.7901 57.3629C36.7902 58.9164 38.2134 60.431 42.2522 63.4604L40.0982 65.0527C38.9057 65.9071 37.4056 67.2276 36.7902 67.9655C36.2132 68.7034 35.367 69.985 34.9439 70.8395C34.5207 71.6939 34.0976 72.5095 34.0207 72.5871C33.9438 72.7037 32.9822 72.0823 31.8667 71.189C30.7512 70.2957 28.8664 69.0529 27.7125 68.3927C26.5585 67.7325 23.9429 66.645 21.9427 65.9848C19.2887 65.0527 17.327 64.6643 14.8267 64.5478C11.4803 64.3536 11.3264 64.3925 10.4033 65.4022C9.86477 65.9459 9.1724 66.412 8.86468 66.412C8.55696 66.412 8.09538 66.0236 7.86459 65.5187C7.59534 65.0527 7.28762 64.3148 7.17223 63.9652C7.05683 63.5769 7.21069 62.6836 7.51841 61.9068C7.82613 61.1689 8.28771 60.4699 8.48003 60.3534C8.71082 60.2757 9.51858 60.7417 11.6726 62.6836L14.7883 62.4117C16.5192 62.2564 18.9425 61.868 20.2118 61.5185C21.4812 61.1689 24.2506 60.0427 26.3662 59.0329ZM34.8285 82.8014C34.7131 83.5005 34.4438 85.5588 34.2515 87.3842C34.0207 89.2096 33.6745 91.2679 33.4822 91.9282C33.2514 92.6273 33.136 93.2875 33.1745 93.404C33.2129 93.5205 33.7514 93.4428 34.3284 93.2098C34.9054 92.9768 37.521 92.5496 40.0982 92.2389C42.6753 91.8893 44.8678 91.5398 44.9063 91.4621C44.9447 91.3456 44.5216 90.6077 43.9446 89.7921C43.3677 89.0154 41.8675 87.3065 40.5982 86.0249C39.3289 84.7433 37.6364 83.1898 36.8286 82.6072C36.0209 82.0246 35.29 81.5586 35.2131 81.5586C35.0977 81.5586 34.9439 82.1412 34.8285 82.8014Z" fill="#6E8F0B"/>
</svg>
